<svg xmlns="http://www.w3.org/2000/svg" viewBox="0 0 80 80">
  <path fill="none" stroke="#000" stroke-width=".5" d="M13.182 47.022h53.636M13.182 32.978h53.636M6.22 40L40 6.367 73.78 40 40 73.633zM.387 40L40 .56 79.613 40 40 79.44z"/>
  <path d="M46.172 62.495q0 .504-.157.763-.154.259-.457.259-.3 0-.457-.257-.157-.259-.16-.746v-.416q0-.495.155-.755.154-.26.459-.26.3 0 .455.251.157.251.162.733zm-.183-.423q0-.407-.109-.614-.107-.207-.325-.207-.21 0-.321.199-.109.197-.114.588v.48q0 .397.11.615.113.216.328.216.208 0 .317-.205.111-.206.114-.605zm-1.873 1.412h-.182v-2.13l-.536.24v-.186l.687-.301h.03zm-1.187-.99q0 .505-.156.764-.155.259-.457.259-.3 0-.458-.257-.156-.259-.16-.746v-.416q0-.495.156-.755.154-.26.458-.26.3 0 .456.251.156.251.161.733zm-.182-.422q0-.407-.109-.614-.107-.207-.326-.207-.21 0-.32.199-.11.197-.114.588v.48q0 .397.11.615.113.216.328.216.208 0 .317-.205.11-.206.114-.605zm-1.392 1.412H40.1v-.153l.674-.91q.17-.232.236-.385.067-.153.067-.3 0-.223-.108-.353-.106-.132-.295-.132-.2 0-.319.153-.118.152-.118.394h-.181q0-.309.17-.512.172-.204.448-.204.27 0 .429.17.157.167.157.467 0 .284-.257.665l-.104.15-.58.783h1.037zm-2.78-.118q0-.059.036-.098.038-.04.103-.04t.102.04q.038.039.038.098 0 .057-.038.094-.037.037-.102.037t-.103-.037q-.035-.037-.035-.094zm.014-2.076h-.674v2.194h-.187V61.29h-.673v-.175h1.534zm-1.968 1.612q0-.199-.114-.313-.112-.114-.422-.218-.309-.104-.454-.233-.19-.167-.19-.442 0-.272.187-.443.187-.17.483-.17.303 0 .495.198t.192.51h-.187q0-.239-.135-.385-.134-.148-.365-.148-.224 0-.354.122-.13.12-.13.312 0 .18.123.293.122.114.389.204.267.088.404.184.136.094.201.223.066.128.066.303 0 .278-.19.449-.186.169-.496.169-.208 0-.38-.085-.171-.086-.27-.245-.095-.162-.095-.38h.185q0 .251.152.394.151.143.408.143.225 0 .36-.12.137-.12.137-.322zm-1.669-.552h-.92v.962h1.059v.172h-1.244v-2.37h1.236v.176h-1.05v.887h.92zm21.235-33.651q-.078 1.196-.644 1.757-.567.557-1.568.557-1.03 0-1.626-.776-.595-.782-.6-2.12v-1.542q0-1.343.605-2.105.61-.762 1.665-.762.996 0 1.543.572.547.57.625 1.753h-.566q-.078-.967-.46-1.382-.375-.415-1.142-.415-.805 0-1.255.6-.449.6-.449 1.743v1.524q0 1.133.435 1.763.434.63 1.225.63.83 0 1.201-.416.371-.415.445-1.381zm-5.755 2.216h-.556v-7.109h.556zm-3.665-2.959h-1.66v2.96h-.562v-7.11h1.949q.971 0 1.504.557.537.551.537 1.538 0 .688-.332 1.21-.332.518-.894.718l1.48 3.023v.063h-.596zm-1.66-.517h1.484q.63 0 1.006-.43.376-.434.376-1.108 0-.747-.39-1.158-.391-.41-1.094-.41h-1.382zm-1.927.073h-2.759v2.886h3.174v.517h-3.73v-7.109h3.706v.527h-3.15v2.661h2.76zm-4.724 3.403h-.557l-3.355-6.054v6.054h-.561v-7.109h.561l3.36 6.064v-6.064h.552zm-5.848-3.403h-2.759v2.886h3.174v.517h-3.73v-7.109h3.705v.527H29.85v2.661h2.759zm-4.632 2.578q-.356.46-.898.694-.542.229-1.187.229-1.094 0-1.719-.732-.625-.733-.65-2.032v-1.728q0-1.362.592-2.085.595-.728 1.694-.728.981 0 1.538.542t.625 1.563h-.557q-.087-.82-.483-1.196-.39-.381-1.118-.381-.87 0-1.304.58-.43.577-.43 1.695v1.64q0 1.114.474 1.73.479.614 1.338.614.933 0 1.523-.59v-1.851h-1.557v-.522h2.119zm26.736 22.762h-2.759v2.886h3.174v.517h-3.73v-7.109h3.706v.527h-3.15v2.661h2.759zm-4.98 0h-2.76v2.886h3.174v.517h-3.73v-7.109h3.706v.527h-3.15v2.661h2.76zm-4.927.093H42.07v3.31h-.556v-7.109h3.7v.527H42.07v2.744h2.735zm-4.903 0h-2.734v3.31h-.557v-7.109h3.702v.527h-3.145v2.744h2.734zm-4.78.527q0 1.377-.605 2.129-.601.752-1.69.752-1.079 0-1.694-.752-.61-.752-.615-2.114v-1.548q0-1.372.61-2.129.61-.762 1.69-.762 1.093 0 1.699.762.605.762.605 2.144zm-.561-1.543q0-1.167-.45-1.753-.449-.586-1.294-.586-.815 0-1.274.576-.459.572-.469 1.714v1.592q0 1.172.464 1.763.464.586 1.29.586.849 0 1.288-.586.445-.586.445-1.763zm-5.25 2.11q-.078 1.196-.644 1.757-.566.557-1.567.557-1.03 0-1.626-.776-.596-.782-.6-2.12v-1.542q0-1.343.605-2.105.61-.762 1.665-.762.996 0 1.543.572.546.57.625 1.753h-.567q-.078-.967-.459-1.382-.376-.415-1.142-.415-.806 0-1.255.6-.45.6-.45 1.743v1.524q0 1.133.435 1.763.435.63 1.226.63.83 0 1.2-.416.372-.415.445-1.381zm31.926-12.943h-2.324v4.143h-.786v-9.954h2.727q1.36 0 2.106.78.752.772.752 2.153 0 .964-.465 1.695-.465.725-1.251 1.005l2.071 4.232v.089h-.834zm-2.324-.725h2.078q.882 0 1.408-.601.527-.609.527-1.552 0-1.046-.547-1.62-.547-.574-1.531-.574h-1.935zm-3.294.103h-3.862v4.04h4.444v.725h-5.223v-9.954h5.188v.739h-4.409v3.725h3.862zm-6.438-4.45h-2.83v9.215h-.786v-9.215h-2.823v-.739h6.44zm-8.454 6.767q0-.834-.479-1.312-.471-.479-1.77-.916-1.3-.438-1.907-.978-.8-.704-.8-1.86 0-1.14.786-1.858.786-.718 2.03-.718 1.272 0 2.078.834.807.834.807 2.146h-.786q0-1.005-.568-1.62-.56-.622-1.53-.622-.944 0-1.491.513-.54.506-.54 1.312 0 .752.513 1.23.512.48 1.633.855 1.121.37 1.696.773.574.396.847.936.274.54.274 1.272 0 1.169-.793 1.886-.786.711-2.085.711-.875 0-1.6-.355-.718-.362-1.128-1.032-.403-.677-.403-1.593h.78q0 1.053.635 1.654.636.602 1.716.602.943 0 1.51-.506.575-.506.575-1.354zm-11.634-1.6v4.048h-.779v-9.954h2.892q1.319 0 2.078.793.759.793.759 2.181 0 1.415-.739 2.174-.731.759-2.112.759zm0-.73h2.113q.984 0 1.517-.568.54-.574.54-1.62 0-1.046-.547-1.648-.54-.601-1.503-.601h-2.12zm-3.464 4.778h-.78v-9.954h.78zm-3.485 0h-.786v-4.765h-4.676v4.765h-.78v-9.954h.78v4.464h4.676v-4.464h.786zM41.64 14.153a2.71 3.277 30 0 0-3.986 1.482 2.71 3.277 30 0 0 .218 3.807c.032-.387.12-.847.373-1.269.306-.508 1.023-.97 1.72-1.444.35-.237.693-.471.97-.69.276-.22.483-.431.562-.58.239-.45.208-.94.153-1.3a2.71 3.277 30 0 0-.01-.006zm.44.335c.01.361-.026.775-.23 1.16-.132.25-.373.47-.667.703-.294.233-.643.472-.991.709-.698.474-1.399.976-1.606 1.32-.298.495-.33 1.009-.323 1.384a2.71 3.277 30 0 0 .099.067 2.71 3.277 30 0 0 3.986-1.486 2.71 3.277 30 0 0-.268-3.857z" font-family="Roboto Condensed" font-size="3.333" font-weight="300" letter-spacing="0" style="line-height:125%;-inkscape-font-specification:'Roboto Condensed, Light';font-variant-ligatures:normal;font-variant-caps:normal;font-variant-numeric:normal;font-feature-settings:normal;text-align:center" text-anchor="middle" word-spacing="0"/>
</svg>
