<svg version="1" xmlns="http://www.w3.org/2000/svg" width="933.333" height="933.333" viewBox="0 0 700.000000 700.000000"><path d="M386.5 32.7c-67.3 2.8-133.1 30.4-190.6 80-14.5 12.6-37.6 36.4-49.6 51.4-65.9 82.4-97 193-81.2 288.9 7.5 45.4 25.1 88.1 50.2 121.5 8.2 11 18.4 22.5 19.8 22.5.5 0 .9-1.6.9-3.5s.7-8.5 1.5-14.7c5.1-36.9 13.4-65.6 27-93 11.5-23.2 19.9-34.5 41.4-55.8 26-25.9 51.7-45.5 123.6-94.5 87.3-59.5 108.8-75.2 135.7-99 11.5-10.2 26.4-26.1 31.7-33.8 8-11.6 15.7-31.7 19.6-50.7 4.7-23.1 5.2-57.6 1.2-81.4l-1.2-7-7-3.8c-34.3-18.6-80.9-28.9-123-27.1z"/><path d="M560 97.1c-.1.2-.3 7.4-.5 15.9-1.1 37.3-6.7 64.9-18.5 91.2-13.3 29.8-37.1 54.9-88.5 93.4-23.5 17.6-25.3 18.9-82.5 58.4-84.6 58.5-110.3 78.1-138.3 105-18.2 17.5-27.6 31-37.3 53.6C181 545.9 174 581.8 174 620.2v9.7l5.8 3.9c13 8.9 36.8 19.2 56.9 24.7 58.8 16.2 123.5 10.1 183.6-17.1 80.5-36.4 152.7-112.2 188-197.2 28-67.6 37-135.9 26.2-199.7-9.3-54.4-31.9-101.7-67.2-140-4-4.3-7.3-7.7-7.3-7.4z"/></svg>