<?xml version="1.0" standalone="no"?>
<!DOCTYPE svg PUBLIC "-//W3C//DTD SVG 20010904//EN"
 "http://www.w3.org/TR/2001/REC-SVG-20010904/DTD/svg10.dtd">
<svg version="1.0" xmlns="http://www.w3.org/2000/svg"
 width="260.000000pt" height="260.000000pt" viewBox="0 0 260.000000 260.000000"
 preserveAspectRatio="xMidYMid meet">
<metadata>
Created by potrace 1.11, written by Peter Selinger 2001-2013
</metadata>
<g transform="translate(0.000000,260.000000) scale(0.100000,-0.100000)"
fill="#000000" stroke="none">
<path d="M647 1943 c-356 -355 -646 -649 -645 -652 2 -3 294 -296 650 -650
l647 -644 648 644 c357 354 648 649 648 654 0 9 -1287 1295 -1296 1295 -2 0
-296 -291 -652 -647z m1196 -111 l537 -537 -540 -540 -540 -540 -540 540 -540
540 537 537 c296 296 540 538 543 538 3 0 247 -242 543 -538z"/>
<path d="M754 1701 c-41 -25 -70 -74 -90 -150 -13 -51 -15 -104 -12 -279 4
-195 6 -223 26 -273 31 -79 78 -121 141 -127 64 -6 101 9 146 59 l35 39 0 155
0 155 -85 0 -85 0 0 -35 0 -35 60 0 60 0 0 -101 c0 -55 -5 -109 -10 -120 -15
-28 -63 -49 -110 -49 -49 0 -88 34 -109 96 -22 63 -27 415 -7 495 21 82 57
119 117 119 59 0 94 -38 109 -118 11 -56 15 -62 38 -62 24 0 24 1 18 53 -10
76 -48 152 -88 177 -42 26 -113 26 -154 1z"/>
<path d="M1724 1710 c-33 -13 -80 -76 -99 -133 -23 -68 -33 -382 -16 -483 26
-148 84 -224 169 -224 66 0 108 28 138 94 13 29 27 80 30 114 7 62 7 62 -20
62 -19 0 -26 -5 -26 -20 0 -46 -24 -123 -47 -150 -20 -24 -33 -30 -65 -30 -52
0 -74 13 -98 59 -27 55 -40 146 -40 296 0 200 27 317 79 345 38 20 91 12 121
-18 26 -26 50 -100 50 -152 0 -15 7 -20 26 -20 27 0 27 0 20 62 -8 82 -46 162
-88 188 -34 21 -96 26 -134 10z"/>
<path d="M1130 1295 l0 -415 25 0 25 0 0 195 0 195 125 0 125 0 0 -195 0 -195
25 0 25 0 0 415 0 415 -25 0 -25 0 0 -185 0 -185 -125 0 -125 0 0 185 0 185
-25 0 -25 0 0 -415z"/>
</g>
</svg>
